<?xml version="1.0" encoding="utf-8"?>
<!-- Svg Vector Icons : http://www.onlinewebfonts.com/icon -->
<!DOCTYPE svg PUBLIC "-//W3C//DTD SVG 1.1//EN" "http://www.w3.org/Graphics/SVG/1.1/DTD/svg11.dtd">
<svg version="1.1" xmlns="http://www.w3.org/2000/svg" xmlns:xlink="http://www.w3.org/1999/xlink" x="0px" y="0px" viewBox="0 0 1000 1000" enable-background="new 0 0 1000 1000" xml:space="preserve">
<metadata> Svg Vector Icons : http://www.onlinewebfonts.com/icon </metadata>
<g><g transform="translate(0.000000,512.000000) scale(0.100000,-0.100000)"><path d="M4662.7,5070.8C3564.3,4960.4,2648,4549.7,1904.2,3833C1166.1,3122.1,718.6,2252.3,552,1198.5c-25.2-158.9-32.9-430.1-38.7-1478.1l-9.7-1284.3L385.4-1684c-137.5-137.5-217-284.8-257.6-474.6C94.9-2317.5,89-3859.5,122-4060.9c56.2-356.4,329.3-652.8,685.8-745.8c100.7-25.2,592.8-29.1,4193.9-29.1c3601.2,0,4093.2,3.9,4194,29.1c362.2,94.9,631.5,391.3,687.7,759.4c13.6,91,19.4,439.7,15.5,1007.3c-5.8,850.4-7.7,869.8-50.4,991.8c-58.1,158.9-160.8,313.8-267.3,402.9l-81.4,69.7l-9.7,1290.2c-7.8,1365.7-11.6,1416.1-110.4,1861.6c-104.6,472.7-362.2,1080.9-629.6,1478C8031.4,4131.3,6923.3,4838.4,5650.6,5034C5462.7,5063.1,4821.5,5086.3,4662.7,5070.8z M5509.2,4491.6c850.4-112.4,1650.5-503.7,2252.9-1104.2c645.1-643.1,1036.4-1439.3,1142.9-2334.3c21.3-164.7,27.1-507.5,29.1-1330.8v-1110H5001.7H1069.3v1110c0,844.6,5.8,1162.3,27.1,1330.8c112.4,898.8,494,1681.5,1125.5,2314.9c612.1,614.1,1400.6,1005.4,2256.8,1123.6C4734.4,4526.5,5245.8,4526.5,5509.2,4491.6z M9118.1-2005.6c94.9-42.6,176.3-133.7,203.4-230.5c15.5-48.4,19.4-356.4,15.5-935.6l-5.8-862l-54.2-81.4c-29.1-44.6-87.2-98.8-129.8-120.1c-75.5-38.7-100.7-38.7-4145.5-38.7c-4011.9,0-4070,0-4143.6,38.7c-91,44.6-149.2,116.2-178.2,211.2c-11.6,46.5-17.4,370-13.6,945.3l5.8,873.7l60.1,75.6c31,40.7,96.9,93,143.3,118.2l85.2,42.6h4040.9C8877.9-1968.8,9044.5-1970.7,9118.1-2005.6z"/><path d="M1448.9-2377.5l-50.4-38.8v-755.5c0-728.4,1.9-755.5,38.7-792.3c52.3-52.3,143.3-50.4,193.7,3.9c36.8,40.7,38.7,63.9,38.7,784.6v743.9l-48.4,46.5C1563.2-2327.2,1516.7-2325.2,1448.9-2377.5z"/><path d="M2320.7-2377.5l-50.4-38.8v-755.5c0-728.4,1.9-755.5,38.7-792.3c21.3-21.3,63.9-38.7,96.9-38.7c32.9,0,75.6,17.4,96.9,38.7c36.8,36.8,38.7,63.9,38.7,784.6v747.8l-48.4,46.5C2434.9-2327.2,2388.5-2325.2,2320.7-2377.5z"/><path d="M3229.2-2385.3l-48.4-46.5V-3166c0-714.8,1.9-736.1,40.7-786.5c48.4-62,135.6-67.8,191.8-11.6c36.8,36.8,38.7,63.9,38.7,792.3v755.5l-50.4,38.8C3333.8-2325.2,3287.3-2327.2,3229.2-2385.3z"/><path d="M4100.9-2385.3l-48.4-46.5V-3166c0-714.8,1.9-736.1,40.7-786.5c48.4-62,135.6-67.8,191.8-11.6c36.8,36.8,38.7,63.9,38.7,792.3v755.5l-50.4,38.8C4205.5-2325.2,4159-2327.2,4100.9-2385.3z"/><path d="M4953.3-2385.3l-48.4-46.5v-743.9v-743.9l44.6-40.7c56.2-52.3,137.5-54.2,187.9-3.9c36.8,36.8,38.8,63.9,38.8,792.3v755.5l-50.4,38.8C5057.9-2325.2,5011.4-2327.2,4953.3-2385.3z"/><path d="M5825-2385.3l-48.4-46.5v-743.9v-743.9l44.6-40.7c56.2-52.3,137.5-54.2,187.9-3.9c36.8,36.8,38.7,63.9,38.7,792.3v755.5l-50.4,38.8C5929.6-2325.2,5883.1-2327.2,5825-2385.3z"/><path d="M6768.4-2356.2c-23.3-9.7-52.3-40.7-62-67.8c-11.6-31-19.4-342.9-19.4-763.3c0-691.5,1.9-714.8,40.7-765.2c48.4-60,127.9-65.8,193.7-13.5l46.5,36.8l5.8,705.1c5.8,757.4,0,827.2-83.3,864C6832.3-2333,6828.4-2333,6768.4-2356.2z"/><path d="M7640.1-2356.2c-23.3-9.7-52.3-40.7-62-67.8c-11.6-31-19.4-342.9-19.4-763.3c0-691.5,1.9-714.8,40.7-765.2c48.4-60,127.9-65.8,193.7-13.5l46.5,36.8l5.8,705.1c5.8,757.4,0,827.2-83.3,864C7704-2333,7700.1-2333,7640.1-2356.2z"/><path d="M8531.2-2360.1c-77.5-38.8-83.3-120.1-77.5-864l5.8-705.1l46.5-36.8c65.9-54.2,145.3-46.5,195.7,15.5c38.7,50.4,40.7,63.9,34.9,792.3c-5.8,803.9-3.9,786.5-112.4,809.7C8597-2342.7,8556.4-2348.5,8531.2-2360.1z"/></g></g>
</svg>