<?xml version="1.0" encoding="utf-8"?>
<!-- Svg Vector Icons : http://www.onlinewebfonts.com/icon -->
<!DOCTYPE svg PUBLIC "-//W3C//DTD SVG 1.1//EN" "http://www.w3.org/Graphics/SVG/1.1/DTD/svg11.dtd">
<svg version="1.1" xmlns="http://www.w3.org/2000/svg" xmlns:xlink="http://www.w3.org/1999/xlink" x="0px" y="0px" viewBox="0 0 1000 1000" enable-background="new 0 0 1000 1000" xml:space="preserve">
<metadata> Svg Vector Icons : http://www.onlinewebfonts.com/icon </metadata>
<g><g transform="translate(0.000000,511.000000) scale(0.100000,-0.100000)"><path d="M3839.2,2122.8c-91.6-124.2-130.2-262.5-120.1-429.4l8.1-142.5l-89.5-61.1c-138.4-95.6-445.7-232-635-284.9c-152.6-40.7-217.8-46.8-549.5-46.8c-341.9,0-396.9,6.1-600.4,57c-276.8,69.2-576,189.3-810,321.6c-116,65.1-193.3,97.7-217.8,89.5c-79.4-24.4-319.5-457.9-435.5-779.5C243,433.6,206.4-177,308.1-525c8.1-28.5-2-36.6-50.9-36.6c-38.7,0-69.2-14.2-81.4-36.6c-24.4-46.8-89.5-1009.5-73.3-1062.4c16.3-50.9,22.4-50.9,427.4-109.9c893.4-128.2,1770.6-215.7,2175.6-215.7c384.7,0,547.5,46.8,724.5,211.7c274.7,256.4,659.4,301.2,1166.2,136.3c580-187.2,1127.5-256.4,1907-240.1c714.3,16.3,1247.6,89.6,2004.7,282.9c282.9,71.2,860.9,252.3,1151.9,358.2c203.5,77.3,256.5,160.8,236.1,372.4c-16.3,140.4-99.7,374.5-152.6,421.3c-22.4,18.3-50.9,67.1-65.1,105.8c-136.4,358.2-537.3,533.2-997.2,435.5c-268.7-57-692-48.8-1017.6,18.3C7130.1,228,6928.6,319.6,6328.3,722.6c-183.2,122.1-207.6,146.5-219.8,211.7c-18.3,89.5-93.6,134.3-156.7,95.7c-34.6-22.4-54.9-14.2-148.6,54.9c-79.4,59-111.9,97.7-122.1,146.5c-6.1,36.6-22.4,77.3-34.6,93.6c-28.5,32.6-103.8,34.6-134.3,4.1c-16.3-16.3-50.9,0-126.2,55c-81.4,61.1-103.8,89.6-103.8,134.3c0,30.5-22.4,81.4-48.8,111.9c-48.8,54.9-52.9,57-109.9,24.4c-57-32.6-59-30.5-183.2,59c-71.2,52.9-126.2,109.9-126.2,130.3c0,59-44.8,136.4-87.5,150.6c-22.4,6.1-59,2-85.5-12.2c-36.6-20.4-59-16.3-134.3,22.4c-65.1,32.6-124.1,44.8-209.6,44.8c-109.9-2-130.2,4.1-219.8,77.3c-57,42.7-118,79.4-140.4,79.4C3914.5,2206.3,3871.8,2169.6,3839.2,2122.8z M4036.6,1986.5l67.2-55l-136.4-132.3l-134.3-132.3l12.2,101.8c12.2,97.7,83.5,274.8,109.9,274.8C3963.3,2043.4,4000,2017,4036.6,1986.5z M4447.7,1799.2c44.8-22.4,81.4-46.8,81.4-52.9c0-4.1-20.4-36.6-42.8-69.2c-42.7-57-42.7-61.1-10.2-109.9c42.8-67.2,101.8-67.2,185.2-2l67.2,48.8l134.3-101.8l134.3-101.8l-42.8-59c-42.7-57-42.7-61.1-10.2-109.9c40.7-65.1,109.9-69.2,183.2-10.2l55,42.7l111.9-77.3c138.4-95.6,140.4-99.7,87.5-138.4c-75.3-50.9-44.8-195.4,40.7-195.4c18.3,0,67.2,22.4,109.9,50.9l75.3,52.9l122.1-85.5l122.1-85.5l-50.9-59c-48.9-57-48.9-95.6-4.1-152.6c30.5-40.7,95.7-30.5,171,26.5l69.2,52.9L6316,480.4c500.7-327.7,663.5-407,1029.8-502.7c490.5-132.3,897.5-160.8,1304.6-93.6c291,48.8,407,44.8,563.8-22.4c136.4-59,301.2-254.4,301.2-360.2c0-26.4-447.7-205.5-761.2-305.3c-313.4-99.7-848.7-211.7-1253.7-260.5c-227.9-26.4-449.8-34.6-966.7-34.6c-718.4,0-1007.4,22.4-1579.3,120.1c-392.8,67.2-671.6,99.7-1493.8,173c-612.6,55-694,67.2-726.6,101.8c-46.8,48.9-44.8,48.9-87.5,8.2c-30.5-32.6-81.4-30.5-673.7,14.2l-639,46.8l-8.1,63.1c-6.1,32.6-20.4,134.3-32.6,223.9c-55,366.3-254.4,828.3-498.6,1154c-126.2,166.9-128.2,171-101.8,234c24.4,54.9,164.8,307.3,183.2,327.7c4.1,4.1,99.7-38.7,215.7-95.6c488.4-234,911.8-335.8,1381.9-333.8c337.8,0,563.8,42.7,842.6,154.7c327.7,130.3,470.1,227.9,734.7,494.6c134.3,136.4,260.5,248.3,280.8,250.3C4352.1,1837.9,4405,1821.6,4447.7,1799.2z M778.3,588.3c191.3-284.9,321.6-620.7,382.6-983c20.4-116,32.6-213.7,26.5-217.8c-4.1-4.1-152.6,2-327.7,14.3l-319.5,22.4l-20.4,75.3C424.1-146.4,440.4,329.8,560.5,690l44.8,132.3l44.8-57C674.5,734.8,733.5,655.4,778.3,588.3z M9676.1-830.3c16.3-61.1,24.4-126.2,16.3-142.5c-24.4-65.1-846.7-333.7-1440.9-472.2c-728.6-168.9-1215-225.9-1921.2-225.9c-694,0-1156,65.1-1689.2,236.1c-315.4,99.7-496.6,126.2-702.1,101.8c-268.7-34.6-490.5-130.2-661.4-289c-122.1-111.9-213.7-144.5-447.7-154.7c-313.4-16.3-1190.6,63.1-2196,201.5l-323.6,42.7l14.2,287c20.4,409.1,30.5,476.2,71.2,468.1c18.3-4.1,348-30.5,734.7-59c1031.8-75.3,2621.3-209.6,3052.8-256.4c207.6-22.4,541.4-67.2,742.9-99.7c1689.2-274.8,3290.9-130.3,4499.8,405c99.7,42.7,191.3,77.3,201.5,75.3C9639.5-714.3,9659.8-767.2,9676.1-830.3z"/><path d="M3788.3,592.3c-22.4-16.3-34.6-42.7-28.5-59c18.3-44.8,360.2-65.1,403-24.4c50.9,48.8-14.2,83.4-183.2,97.7C3863.6,616.8,3816.8,612.7,3788.3,592.3z"/><path d="M6122.7,543.5c-14.2-6.1-26.5-20.4-26.5-34.6c0-38.7-83.5-109.9-158.7-136.4c-69.2-24.4-89.6-91.6-34.6-111.9c46.8-18.3,168.9,30.5,234,97.7C6226.5,445.8,6216.3,576.1,6122.7,543.5z"/><path d="M4490.4,519.1c-14.2-10.2-22.4-34.6-18.3-55c4.1-30.5,42.7-46.8,179.1-75.3c191.3-40.7,230-34.6,219.8,30.5c-4.1,34.6-28.5,48.8-118,67.2C4553.6,531.3,4516.9,535.4,4490.4,519.1z"/><path d="M3326.3,458c-122.1-79.4-209.6-175-195.4-213.7c20.4-50.9,75.3-38.7,160.8,38.7c42.7,40.7,101.8,83.4,128.2,95.7c59,26.5,79.4,73.3,48.8,109.9C3438.3,527.2,3430.1,525.2,3326.3,458z"/><path d="M5182.4,366.4c-44.8-52.9,4.1-85.5,158.7-111.9c187.2-30.5,219.8-28.5,234,10.2c20.4,52.9-20.4,83.4-136.3,95.6c-59,8.2-136.4,18.3-168.9,26.5C5227.2,394.9,5200.7,388.8,5182.4,366.4z"/><path d="M2850.1-158.7c-85.5-175-91.6-240.1-24.4-240.1c36.6,0,59,30.5,120.1,166.9c59,126.2,71.2,170.9,54.9,193.3C2955.9,14.3,2919.3-14.1,2850.1-158.7z"/><path d="M7119.9-65c-16.3-44.8,30.5-191.3,67.2-205.6c57-22.4,87.5,30.5,65.1,111.9c-12.2,40.7-30.5,87.5-40.7,101.8C7183-22.3,7136.2-26.4,7119.9-65z"/><path d="M7209.5-431.3c-8.2-8.2-14.3-63.1-14.3-124.2c0-120.1,38.7-160.8,97.7-101.8c26.5,26.5,28.5,50.9,12.2,130.3C7288.8-435.4,7246.1-394.7,7209.5-431.3z"/><path d="M7209.5-838.4c-26.5-26.5-16.3-166.9,12.2-177.1c50.9-20.4,77.3,18.3,71.2,99.7C7286.8-840.4,7246.1-801.8,7209.5-838.4z"/></g></g>
</svg>